<?xml version="1.0" encoding="UTF-8" standalone="no"?>
<!-- Created with Inkscape (http://www.inkscape.org/) -->

<svg
   xmlns:dc="http://purl.org/dc/elements/1.1/"
   xmlns:cc="http://creativecommons.org/ns#"
   xmlns:rdf="http://www.w3.org/1999/02/22-rdf-syntax-ns#"
   xmlns:svg="http://www.w3.org/2000/svg"
   xmlns="http://www.w3.org/2000/svg"
   xmlns:sodipodi="http://sodipodi.sourceforge.net/DTD/sodipodi-0.dtd"
   xmlns:inkscape="http://www.inkscape.org/namespaces/inkscape"
   width="250px"
   height="250px"
   viewBox="0 0 250 250"
   version="1.1"
   id="SVGRoot"
   inkscape:version="0.92.1 r15371"
   sodipodi:docname="paul.svg">
  <sodipodi:namedview
     id="base"
     pagecolor="#ffffff"
     bordercolor="#666666"
     borderopacity="1.0"
     inkscape:pageopacity="0.0"
     inkscape:pageshadow="2"
     inkscape:zoom="1.024"
     inkscape:cx="124.02344"
     inkscape:cy="125"
     inkscape:document-units="px"
     inkscape:current-layer="layer1"
     showgrid="false"
     inkscape:window-width="1920"
     inkscape:window-height="1016"
     inkscape:window-x="0"
     inkscape:window-y="27"
     inkscape:window-maximized="1"
     inkscape:grid-bbox="true"
     inkscape:snap-grids="true" />
  <defs
     id="defs5196" />
  <metadata
     id="metadata5199">
    <rdf:RDF>
      <cc:Work
         rdf:about="">
        <dc:format>image/svg+xml</dc:format>
        <dc:type
           rdf:resource="http://purl.org/dc/dcmitype/StillImage" />
        <dc:title></dc:title>
      </cc:Work>
    </rdf:RDF>
  </metadata>
  <g
     id="layer1"
     inkscape:groupmode="layer"
     inkscape:label="Livello 1">
    <g
       id="g5894"
       transform="translate(2.9296916,0.97656075)">
      <circle
         r="116.36484"
         cy="124.13052"
         cx="121.95406"
         id="path6508"
         style="fill:#fffad7;fill-opacity:1;stroke:none;stroke-width:9.26922131;stroke-miterlimit:4;stroke-dasharray:none;stroke-opacity:1" />
      <path
         id="path6345"
         d="M 164.74771,162.91856 H 127.3472 l -8.01585,-21.03779 h 5.67833 l -4.67509,-9.35013 H 115.7714 L 102.91498,99.805202 h 8.06951 l -4.67507,-9.350136 h 58.43829 z m 0,0"
         style="fill:#a2d8dd;fill-opacity:1;stroke-width:0.29219139"
         inkscape:connector-curvature="0" />
      <path
         id="path6347"
         d="m 132.02225,109.15533 c 2.58179,0 4.67508,2.09326 4.67508,4.67505 v 9.35014 h -9.35013 v -9.35014 c 0,-2.58179 2.09327,-4.67505 4.67505,-4.67505 z m 0,0"
         style="fill:#2f3e4f;stroke-width:0.29219139"
         inkscape:connector-curvature="0" />
      <path
         id="path6349"
         d="m 150.72253,109.15533 c 2.58177,0 4.67505,2.09326 4.67505,4.67505 v 9.35014 h -9.35014 v -9.35014 c 0,-2.58179 2.09328,-4.67505 4.67509,-4.67505 z m 0,0"
         style="fill:#2f3e4f;stroke-width:0.29219139"
         inkscape:connector-curvature="0" />
      <path
         id="path6351"
         d="m 150.72253,139.54325 c 2.58177,0 4.67505,2.09327 4.67505,4.67506 v 9.35012 h -9.35014 v -9.35012 c 0,-2.58179 2.09328,-4.67506 4.67509,-4.67506 z m 0,0"
         style="fill:#2f3e4f;stroke-width:0.29219139"
         inkscape:connector-curvature="0" />
      <path
         id="path6353"
         d="m 153.06005,97.467668 h 11.68766 v 4.675062 h -11.68766 z m 0,0"
         style="fill:#fef59c;stroke-width:0.29219139"
         inkscape:connector-curvature="0" />
      <path
         id="path6357"
         d="m 106.30942,106.8178 h 11.68764 v 4.67505 h -11.68764 z m 0,0"
         style="fill:#fef59c;stroke-width:0.29219139"
         inkscape:connector-curvature="0" />
      <path
         style="fill:#fef59c;fill-opacity:1;stroke-width:0.37726319"
         inkscape:connector-curvature="0"
         id="path6359"
         d="m 110.9845,97.467668 h 27.27779 v 4.675062 H 110.9845 Z m 0,0" />
      <path
         style="fill:#fef59c;stroke-width:0.34690946"
         inkscape:connector-curvature="0"
         id="path6363"
         d="m 125.00968,139.54325 h 9.88497 v 4.67506 h -9.88497 z m 0,0" />
      <path
         id="path6369"
         d="M 115.7714,132.53064 102.91498,99.805202 H 38.521016 v 32.725438 z m 0,0"
         style="fill:#9dbedf;fill-opacity:1;stroke-width:0.29219139"
         inkscape:connector-curvature="0" />
      <path
         id="path6371"
         d="m 38.521016,141.88077 v 21.03779 H 127.3472 l -8.01585,-21.03779 z m 0,0"
         style="fill:#9dbedf;fill-opacity:1;stroke-width:0.29219139"
         inkscape:connector-curvature="0" />
      <path
         id="path6373"
         d="M 99.29681,90.455066 87.609167,62.404703 H 38.521016 v 28.050363 z m 0,0"
         style="fill:#9dbedf;fill-opacity:1;stroke-width:0.29219139"
         inkscape:connector-curvature="0" />
      <path
         id="path6375"
         d="M 33.845948,162.91856 H 169.42277 v 9.35012 H 33.845948 Z m 0,0"
         style="fill:#a0a0a0;fill-opacity:1;stroke-width:0.29219139"
         inkscape:connector-curvature="0" />
      <g
         id="g6395"
         style="fill:#2f3e4f"
         transform="matrix(0.29219143,0,0,0.29219143,33.845948,62.404703)">
        <path
           id="path6377"
           d="m 64,296 c 8.835938,0 16,7.16406 16,16 v 32 H 48 v -32 c 0,-8.83594 7.164062,-16 16,-16 z m 0,0"
           inkscape:connector-curvature="0" />
        <path
           id="path6379"
           d="m 128,296 c 8.83594,0 16,7.16406 16,16 v 32 h -32 v -32 c 0,-8.83594 7.16406,-16 16,-16 z m 0,0"
           inkscape:connector-curvature="0" />
        <path
           id="path6381"
           d="m 192,296 c 8.83594,0 16,7.16406 16,16 v 32 h -32 v -32 c 0,-8.83594 7.16406,-16 16,-16 z m 0,0"
           inkscape:connector-curvature="0" />
        <path
           id="path6383"
           d="m 256,296 c 8.83594,0 16,7.16406 16,16 v 32 h -32 v -32 c 0,-8.83594 7.16406,-16 16,-16 z m 0,0"
           inkscape:connector-curvature="0" />
        <path
           id="path6385"
           d="m 64,160 c 8.835938,0 16,7.16406 16,16 v 32 H 48 v -32 c 0,-8.83594 7.164062,-16 16,-16 z m 0,0"
           inkscape:connector-curvature="0" />
        <path
           id="path6387"
           d="m 128,160 c 8.83594,0 16,7.16406 16,16 v 32 h -32 v -32 c 0,-8.83594 7.16406,-16 16,-16 z m 0,0"
           inkscape:connector-curvature="0" />
        <path
           id="path6389"
           d="m 80,32 c 8.835938,0 16,7.164062 16,16 V 64 H 64 V 48 c 0,-8.835938 7.164062,-16 16,-16 z m 0,0"
           inkscape:connector-curvature="0" />
        <path
           id="path6391"
           d="m 144,32 c 8.83594,0 16,7.164062 16,16 V 64 H 128 V 48 c 0,-8.835938 7.16406,-16 16,-16 z m 0,0"
           inkscape:connector-curvature="0" />
        <path
           id="path6393"
           d="m 192,160 c 8.83594,0 16,7.16406 16,16 v 32 h -32 v -32 c 0,-8.83594 7.16406,-16 16,-16 z m 0,0"
           inkscape:connector-curvature="0" />
      </g>
      <path
         id="path6397"
         d="M 110.9845,99.805202 H 33.845948 v -9.350136 h 72.463472 z m 0,0"
         style="fill:#a0a0a0;fill-opacity:1;stroke-width:0.29219139"
         inkscape:connector-curvature="0" />
      <path
         id="path6399"
         d="M 38.521016,78.767414 H 45.5336 v 4.675068 h -7.012584 z m 0,0"
         style="fill:#a0a0a0;fill-opacity:1;stroke-width:0.29219139"
         inkscape:connector-curvature="0" />
      <path
         id="path6401"
         d="M 38.521016,69.417287 H 45.5336 v 4.675068 h -7.012584 z m 0,0"
         style="fill:#a0a0a0;fill-opacity:1;stroke-width:0.29219139"
         inkscape:connector-curvature="0" />
      <path
         id="path6405"
         d="M 125.00968,141.88077 H 33.845948 v -9.35013 h 86.488642 z m 0,0"
         style="fill:#a0a0a0;fill-opacity:1;stroke-width:0.29219139"
         inkscape:connector-curvature="0" />
      <circle
         r="112.54659"
         cy="125"
         cx="123.18699"
         id="path5552"
         style="fill:#000000;fill-opacity:0;stroke:#b3711d;stroke-width:9.54184532;stroke-miterlimit:4;stroke-dasharray:none;stroke-opacity:1" />
      <path
         id="path2"
         d="m 199.41085,90.503414 c -1.79363,0 -3.24901,-1.455372 -3.24901,-3.24414 V 84.00995 c 0,-1.793331 1.45538,-3.249009 3.24901,-3.249009 1.79365,0 3.24416,1.455678 3.24416,3.249009 v 3.249324 c 0,1.788768 -1.45051,3.24414 -3.24416,3.24414 z"
         style="fill:#aab2bc;stroke-width:0.30447149"
         inkscape:connector-curvature="0" />
      <path
         id="path4"
         d="m 137.70575,213.97819 c -1.79365,0 -3.24933,-1.45538 -3.24933,-3.24415 V 197.7471 c 0,-1.79819 1.45568,-3.25386 3.24933,-3.25386 1.79363,0 3.24932,1.45536 3.24932,3.25386 v 12.98694 c 0,1.78877 -1.45569,3.24415 -3.24932,3.24415 z"
         style="fill:#f6bb42;stroke-width:0.30447149"
         inkscape:connector-curvature="0" />
      <path
         id="path6"
         d="m 150.69723,213.97819 h -19.48495 c -1.79365,0 -3.24902,-1.45538 -3.24902,-3.24415 0,-1.79821 1.45569,-3.24443 3.24902,-3.24443 h 19.48495 c 1.79366,0 3.24446,1.44622 3.24446,3.24443 0,1.78877 -1.4508,3.24415 -3.24446,3.24415 z"
         style="fill:#ffce54;stroke-width:0.30447149"
         inkscape:connector-curvature="0" />
      <path
         id="path8"
         d="m 202.65501,90.503414 h -13.94783 c -1.79366,0 -3.24445,-1.455372 -3.24445,-3.24414 0,-1.798209 1.45107,-3.249324 3.24445,-3.249324 h 13.94783 c 1.79364,0 3.24931,1.451115 3.24931,3.249324 0,1.788768 -1.45567,3.24414 -3.24931,3.24414 z"
         style="fill:#ffe700;fill-opacity:1;stroke-width:0.30447149"
         inkscape:connector-curvature="0" />
      <path
         id="path10"
         d="m 137.70575,162.10629 c -7.16179,0 -12.98937,5.83216 -12.98937,12.99666 0,3.36807 1.27725,9.43833 3.03984,14.4143 2.72808,7.72565 5.98196,11.47463 9.94953,11.47463 3.96756,0 7.22146,-3.74867 9.95226,-11.47463 1.75983,-4.97597 3.03922,-11.04623 3.03922,-14.4143 0,-7.1645 -5.82728,-12.99666 -12.99148,-12.99666 z"
         style="fill:#e59518;fill-opacity:1;stroke-width:0.30447149"
         inkscape:connector-curvature="0" />
      <g
         id="g16"
         transform="matrix(0.30447149,0,0,0.30447149,50.022215,64.592585)">
        <path
           id="path12"
           d="m 478.259,58.9 c 1.891,-2.906 2.234,-6.531 0.953,-9.75 -0.453,-1.141 -11.5,-27.812 -47.154,-27.812 -3.938,0 -8.077,0.344 -12.312,1.016 -25.734,4.094 -41.608,37.14 -59.982,75.419 -13.953,29.046 -28.375,59.091 -46.857,75.45 -11.89,10.53 -47.045,32.42 -147.064,76.95 -60.404,26.882 -116.245,49.35 -116.8,49.6 -4.086,1.625 -6.75,5.625 -6.688,10.031 0.062,4.406 2.828,8.312 6.969,9.843 96.418,35.686 177.891,53.779 242.162,53.779 h 0.016 c 67.263,0 117.292,-19.656 148.681,-58.466 40.187,-49.663 49.154,-129.863 26.655,-238.421 z"
           style="fill:#e59518;fill-opacity:1"
           inkscape:connector-curvature="0" />
        <path
           id="path14"
           d="M 247.777,349.583 98.447,314.336 c -2.625,-0.594 -5.382,-0.219 -7.726,1.125 l -85.332,48.59 c -4.305,2.438 -6.352,7.531 -4.953,12.28 1.352,4.562 5.531,7.656 10.226,7.656 0.203,0 0.406,0 0.609,-0.031 l 234.663,-13.343 c 5.289,-0.312 9.554,-4.438 10.015,-9.719 0.461,-5.281 -3.016,-10.093 -8.172,-11.311 z"
           style="fill:#e59518;fill-opacity:1"
           inkscape:connector-curvature="0" />
      </g>
      <path
         id="path18"
         d="m 193.79276,137.21908 c -6.9027,-18.32004 -19.88961,-22.16856 -29.57058,-22.16856 -12.68278,0 -24.52306,6.38416 -27.52485,8.13 -0.23323,0.0667 -0.46158,0.16654 -0.68019,0.29016 -22.67491,12.89193 -70.582272,32.19452 -71.062737,32.39425 -1.24407,0.49476 -2.055177,1.71265 -2.036295,3.05414 0.01881,1.34152 0.861039,2.53078 2.121858,2.99694 29.358963,10.86535 54.164854,16.37417 73.726564,16.37417 0.005,0 0,0 0,0 15.42238,0 27.94318,-3.41589 37.21525,-10.15202 9.06227,-6.593 15.09904,-16.37417 17.94402,-29.0688 0.13822,-0.61351 0.0905,-1.26052 -0.13297,-1.85028 z"
         style="fill:#ffbe3b;fill-opacity:1;stroke-width:0.30447149"
         inkscape:connector-curvature="0" />
      <path
         id="path20"
         d="m 183.17006,84.00995 c 0,1.793646 -1.45112,3.249324 -3.24446,3.249324 -1.79332,0 -3.249,-1.455678 -3.249,-3.249324 0,-1.793331 1.45568,-3.249009 3.249,-3.249009 1.79363,0 3.24446,1.455975 3.24446,3.249009 z"
         style="fill:#ffffff;fill-opacity:1;stroke-width:0.30447149"
         inkscape:connector-curvature="0" />
      <path
         sodipodi:nodetypes="ccccc"
         inkscape:connector-curvature="0"
         id="path5508"
         d="m 146.13517,116.57579 c 0,0 -0.99929,0.37647 -1.37117,1.28295 l 45.74804,14.82902 2.1634,-0.9271 z"
         style="fill:#a24019;fill-opacity:1;stroke:none;stroke-width:0.30447149px;stroke-linecap:butt;stroke-linejoin:miter;stroke-opacity:1" />
      <g
         transform="matrix(0.30280359,0.03182594,-0.03182594,0.30280359,81.985769,-51.495438)"
         id="g5499">
        <rect
           ry="2.8977563"
           y="592.31946"
           x="482.14484"
           height="29.943483"
           width="10.545977"
           id="rect5454"
           style="fill:#e55918;fill-opacity:1;stroke-width:0.33178115" />
        <rect
           ry="4.6364102"
           y="582.85345"
           x="468.70386"
           height="47.330021"
           width="15.508789"
           id="rect5452"
           style="fill:#ac4444;fill-opacity:1;stroke-width:0.33178115" />
        <rect
           ry="2.0133021"
           y="556.5578"
           x="424.46921"
           height="4.0266042"
           width="16.785803"
           id="rect4903"
           style="fill:#3d1400;fill-opacity:1;stroke-width:0.1941368" />
        <rect
           ry="5.022778"
           y="574.54657"
           x="450.5069"
           height="64.137009"
           width="21.298737"
           id="rect5448"
           style="fill:#832a00;fill-opacity:1;stroke-width:0.33178115" />
        <rect
           ry="11.457696"
           y="560.34802"
           x="411.70483"
           height="91.661568"
           width="42.564388"
           id="rect4899"
           style="fill:#d76622;fill-opacity:1;stroke-width:0.33178115" />
      </g>
    </g>
  </g>
</svg>
