<?xml version="1.0" encoding="UTF-8" standalone="no"?>
<!-- Created with Inkscape (http://www.inkscape.org/) -->

<svg
   xmlns:dc="http://purl.org/dc/elements/1.1/"
   xmlns:cc="http://creativecommons.org/ns#"
   xmlns:rdf="http://www.w3.org/1999/02/22-rdf-syntax-ns#"
   xmlns:svg="http://www.w3.org/2000/svg"
   xmlns="http://www.w3.org/2000/svg"
   xmlns:sodipodi="http://sodipodi.sourceforge.net/DTD/sodipodi-0.dtd"
   xmlns:inkscape="http://www.inkscape.org/namespaces/inkscape"
   width="210mm"
   height="297mm"
   viewBox="0 0 210 297"
   version="1.1"
   id="svg5538"
   inkscape:version="0.92.1 r15371"
   sodipodi:docname="Strand icon.svg">
  <defs
     id="defs5532" />
  <sodipodi:namedview
     id="base"
     pagecolor="#ffffff"
     bordercolor="#666666"
     borderopacity="1.0"
     inkscape:pageopacity="0.0"
     inkscape:pageshadow="2"
     inkscape:zoom="0.73126247"
     inkscape:cx="342.15047"
     inkscape:cy="824.54729"
     inkscape:document-units="mm"
     inkscape:current-layer="svg5538"
     showgrid="false"
     inkscape:window-width="1920"
     inkscape:window-height="1016"
     inkscape:window-x="0"
     inkscape:window-y="27"
     inkscape:window-maximized="1" />
  <metadata
     id="metadata5535">
    <rdf:RDF>
      <cc:Work
         rdf:about="">
        <dc:format>image/svg+xml</dc:format>
        <dc:type
           rdf:resource="http://purl.org/dc/dcmitype/StillImage" />
        <dc:title />
      </cc:Work>
    </rdf:RDF>
  </metadata>
  <g
     inkscape:label="Livello 1"
     inkscape:groupmode="layer"
     id="layer1">
    <circle
       style="fill:#fffad7;fill-opacity:1;stroke:none;stroke-width:6.18314266;stroke-miterlimit:4;stroke-dasharray:none;stroke-opacity:1"
       id="path6508"
       cx="89.60836"
       cy="88.674835"
       r="77.622528" />
    <path
       inkscape:connector-curvature="0"
       style="fill:#a2d8dd;fill-opacity:1;stroke-width:0.19490969"
       d="M 118.15436,114.54885 H 93.205916 l -5.34708,-14.0335 h 3.7878 l -3.11856,-6.237112 h -3.04393 l -8.57603,-21.82989 h 5.38286 l -3.11856,-6.23711 h 38.981944 z m 0,0"
       id="path6345" />
    <path
       inkscape:connector-curvature="0"
       style="fill:#2f3e4f;stroke-width:0.19490969"
       d="m 96.324466,78.685458 c 1.72221,0 3.11856,1.39634 3.11856,3.11855 v 6.23712 h -6.23711 v -6.23712 c 0,-1.72221 1.39634,-3.11855 3.11855,-3.11855 z m 0,0"
       id="path6347" />
    <path
       inkscape:connector-curvature="0"
       style="fill:#2f3e4f;stroke-width:0.19490969"
       d="m 108.7987,78.685458 c 1.7222,0 3.11855,1.39634 3.11855,3.11855 v 6.23712 h -6.23712 v -6.23712 c 0,-1.72221 1.39635,-3.11855 3.11857,-3.11855 z m 0,0"
       id="path6349" />
    <path
       inkscape:connector-curvature="0"
       style="fill:#2f3e4f;stroke-width:0.19490969"
       d="m 108.7987,98.956078 c 1.7222,0 3.11855,1.396342 3.11855,3.118552 v 6.23711 h -6.23712 v -6.23711 c 0,-1.72221 1.39635,-3.118552 3.11857,-3.118552 z m 0,0"
       id="path6351" />
    <path
       inkscape:connector-curvature="0"
       style="fill:#fef59c;stroke-width:0.19490969"
       d="m 110.35797,70.889068 h 7.79639 v 3.11856 h -7.79639 z m 0,0"
       id="path6353" />
    <path
       inkscape:connector-curvature="0"
       style="fill:#fef59c;stroke-width:0.19490969"
       d="m 79.172416,77.126188 h 7.79638 v 3.11854 h -7.79638 z m 0,0"
       id="path6357" />
    <path
       d="m 82.290976,70.889068 h 18.195974 v 3.11856 H 82.290976 Z m 0,0"
       id="path6359"
       inkscape:connector-curvature="0"
       style="fill:#fef59c;fill-opacity:1;stroke-width:0.25165781" />
    <path
       d="m 91.646636,98.956078 h 6.59389 v 3.118552 h -6.59389 z m 0,0"
       id="path6363"
       inkscape:connector-curvature="0"
       style="fill:#fef59c;stroke-width:0.23141001" />
    <path
       inkscape:connector-curvature="0"
       style="fill:#9dbedf;fill-opacity:1;stroke-width:0.19490969"
       d="m 85.484146,94.278238 -8.57603,-21.82989 h -42.95475 v 21.82989 z m 0,0"
       id="path6369" />
    <path
       inkscape:connector-curvature="0"
       style="fill:#9dbedf;fill-opacity:1;stroke-width:0.19490969"
       d="m 33.953366,100.51535 v 14.0335 h 59.25255 l -5.34708,-14.0335 z m 0,0"
       id="path6371" />
    <path
       inkscape:connector-curvature="0"
       style="fill:#9dbedf;fill-opacity:1;stroke-width:0.19490969"
       d="m 74.494576,66.211238 -7.79638,-18.71133 h -32.74483 v 18.71133 z m 0,0"
       id="path6373" />
    <path
       inkscape:connector-curvature="0"
       style="fill:#a0a0a0;fill-opacity:1;stroke-width:0.19490969"
       d="m 30.834806,114.54885 h 90.438114 v 6.23711 H 30.834806 Z m 0,0"
       id="path6375" />
    <g
       transform="matrix(0.19490971,0,0,0.19490971,30.834806,47.499908)"
       style="fill:#2f3e4f"
       id="g6395">
      <path
         inkscape:connector-curvature="0"
         d="m 64,296 c 8.835938,0 16,7.16406 16,16 v 32 H 48 v -32 c 0,-8.83594 7.164062,-16 16,-16 z m 0,0"
         id="path6377" />
      <path
         inkscape:connector-curvature="0"
         d="m 128,296 c 8.83594,0 16,7.16406 16,16 v 32 h -32 v -32 c 0,-8.83594 7.16406,-16 16,-16 z m 0,0"
         id="path6379" />
      <path
         inkscape:connector-curvature="0"
         d="m 192,296 c 8.83594,0 16,7.16406 16,16 v 32 h -32 v -32 c 0,-8.83594 7.16406,-16 16,-16 z m 0,0"
         id="path6381" />
      <path
         inkscape:connector-curvature="0"
         d="m 256,296 c 8.83594,0 16,7.16406 16,16 v 32 h -32 v -32 c 0,-8.83594 7.16406,-16 16,-16 z m 0,0"
         id="path6383" />
      <path
         inkscape:connector-curvature="0"
         d="m 64,160 c 8.835938,0 16,7.16406 16,16 v 32 H 48 v -32 c 0,-8.83594 7.164062,-16 16,-16 z m 0,0"
         id="path6385" />
      <path
         inkscape:connector-curvature="0"
         d="m 128,160 c 8.83594,0 16,7.16406 16,16 v 32 h -32 v -32 c 0,-8.83594 7.16406,-16 16,-16 z m 0,0"
         id="path6387" />
      <path
         inkscape:connector-curvature="0"
         d="m 80,32 c 8.835938,0 16,7.164062 16,16 V 64 H 64 V 48 c 0,-8.835938 7.164062,-16 16,-16 z m 0,0"
         id="path6389" />
      <path
         inkscape:connector-curvature="0"
         d="m 144,32 c 8.83594,0 16,7.164062 16,16 V 64 H 128 V 48 c 0,-8.835938 7.16406,-16 16,-16 z m 0,0"
         id="path6391" />
      <path
         inkscape:connector-curvature="0"
         d="m 192,160 c 8.83594,0 16,7.16406 16,16 v 32 h -32 v -32 c 0,-8.83594 7.16406,-16 16,-16 z m 0,0"
         id="path6393" />
    </g>
    <path
       inkscape:connector-curvature="0"
       style="fill:#a0a0a0;fill-opacity:1;stroke-width:0.19490969"
       d="m 82.290976,72.448348 h -51.45617 v -6.23711 h 48.33761 z m 0,0"
       id="path6397" />
    <path
       inkscape:connector-curvature="0"
       style="fill:#a0a0a0;fill-opacity:1;stroke-width:0.19490969"
       d="m 33.953366,58.414848 h 4.67783 v 3.11856 h -4.67783 z m 0,0"
       id="path6399" />
    <path
       inkscape:connector-curvature="0"
       style="fill:#a0a0a0;fill-opacity:1;stroke-width:0.19490969"
       d="m 33.953366,52.177738 h 4.67783 v 3.11856 h -4.67783 z m 0,0"
       id="path6401" />
    <path
       inkscape:connector-curvature="0"
       style="fill:#a0a0a0;fill-opacity:1;stroke-width:0.19490969"
       d="m 91.646636,100.51535 h -60.81183 v -6.237112 h 57.69327 z m 0,0"
       id="path6405" />
    <circle
       style="fill:#000000;fill-opacity:0;stroke:#b3711d;stroke-width:6.365;stroke-opacity:1;stroke-miterlimit:4;stroke-dasharray:none"
       id="path5552"
       cx="90.430801"
       cy="89.254837"
       r="75.075523" />
    <path
       inkscape:connector-curvature="0"
       style="fill:#aab2bc;stroke-width:0.20310126"
       d="m 141.27682,66.243487 c -1.19647,0 -2.16729,-0.970824 -2.16729,-2.164044 v -2.167497 c 0,-1.196267 0.97082,-2.167294 2.16729,-2.167294 1.19647,0 2.16405,0.971027 2.16405,2.167294 v 2.167497 c 0,1.19322 -0.96758,2.164044 -2.16405,2.164044 z"
       id="path2" />
    <path
       inkscape:connector-curvature="0"
       style="fill:#f6bb42;stroke-width:0.20310126"
       d="m 100.1157,148.60877 c -1.196472,0 -2.167499,-0.97082 -2.167499,-2.16404 v -8.66309 c 0,-1.19951 0.971027,-2.17053 2.167499,-2.17053 1.19647,0 2.1675,0.97082 2.1675,2.17053 v 8.66309 c 0,1.19322 -0.97103,2.16404 -2.1675,2.16404 z"
       id="path4" />
    <path
       inkscape:connector-curvature="0"
       style="fill:#ffce54;stroke-width:0.20310126"
       d="M 108.78182,148.60877 H 95.784156 c -1.196469,0 -2.167293,-0.97082 -2.167293,-2.16404 0,-1.19952 0.971027,-2.16424 2.167293,-2.16424 h 12.997664 c 1.19648,0 2.16426,0.96472 2.16426,2.16424 0,1.19322 -0.96778,2.16404 -2.16426,2.16404 z"
       id="path6" />
    <path
       inkscape:connector-curvature="0"
       style="fill:#ffe700;fill-opacity:1;stroke-width:0.20310126"
       d="m 143.44087,66.243487 h -9.30406 c -1.19649,0 -2.16425,-0.970824 -2.16425,-2.164044 0,-1.199517 0.96796,-2.167497 2.16425,-2.167497 h 9.30406 c 1.19647,0 2.16749,0.96798 2.16749,2.167497 0,1.19322 -0.97102,2.164044 -2.16749,2.164044 z"
       id="path8" />
    <path
       inkscape:connector-curvature="0"
       style="fill:#e59518;fill-opacity:1;stroke-width:0.20310126"
       d="m 100.1157,114.00702 c -4.777351,0 -8.664709,3.89041 -8.664709,8.66958 0,2.24671 0.852009,6.29594 2.027762,9.61522 1.819789,5.15349 3.990331,7.65428 6.636947,7.65428 2.64661,0 4.81716,-2.50059 6.63878,-7.65428 1.17391,-3.31928 2.02734,-7.36851 2.02734,-9.61522 0,-4.77917 -3.88715,-8.66958 -8.66612,-8.66958 z"
       id="path10" />
    <g
       transform="matrix(0.20310127,0,0,0.20310127,41.625373,48.959365)"
       id="g16">
      <path
         inkscape:connector-curvature="0"
         style="fill:#e59518;fill-opacity:1"
         d="m 478.259,58.9 c 1.891,-2.906 2.234,-6.531 0.953,-9.75 -0.453,-1.141 -11.5,-27.812 -47.154,-27.812 -3.938,0 -8.077,0.344 -12.312,1.016 -25.734,4.094 -41.608,37.14 -59.982,75.419 -13.953,29.046 -28.375,59.091 -46.857,75.45 -11.89,10.53 -47.045,32.42 -147.064,76.95 -60.404,26.882 -116.245,49.35 -116.8,49.6 -4.086,1.625 -6.75,5.625 -6.688,10.031 0.062,4.406 2.828,8.312 6.969,9.843 96.418,35.686 177.891,53.779 242.162,53.779 h 0.016 c 67.263,0 117.292,-19.656 148.681,-58.466 40.187,-49.663 49.154,-129.863 26.655,-238.421 z"
         id="path12" />
      <path
         inkscape:connector-curvature="0"
         style="fill:#e59518;fill-opacity:1"
         d="M 247.777,349.583 98.447,314.336 c -2.625,-0.594 -5.382,-0.219 -7.726,1.125 l -85.332,48.59 c -4.305,2.438 -6.352,7.531 -4.953,12.28 1.352,4.562 5.531,7.656 10.226,7.656 0.203,0 0.406,0 0.609,-0.031 l 234.663,-13.343 c 5.289,-0.312 9.554,-4.438 10.015,-9.719 0.461,-5.281 -3.016,-10.093 -8.172,-11.311 z"
         id="path14" />
    </g>
    <path
       inkscape:connector-curvature="0"
       style="fill:#ffbe3b;fill-opacity:1;stroke-width:0.20310126"
       d="m 137.5292,97.405717 c -4.60452,-12.220598 -13.2676,-14.787798 -19.7254,-14.787798 -8.46019,0 -16.35839,4.258627 -18.360774,5.423209 -0.155576,0.04448 -0.307902,0.111097 -0.453729,0.193556 -15.125562,8.599713 -47.082735,21.475726 -47.403229,21.608966 -0.829871,0.33003 -1.370934,1.14244 -1.358341,2.0373 0.0126,0.89487 0.574371,1.68818 1.415413,1.99914 19.584244,7.24786 36.131311,10.92258 49.18017,10.92258 0.003,0 0,0 0,0 10.28768,0 18.63983,-2.2786 24.82487,-6.77202 6.0451,-4.39794 10.07199,-10.92258 11.96977,-19.390683 0.0922,-0.40925 0.0604,-0.84084 -0.0887,-1.23425 z"
       id="path18" />
    <path
       inkscape:connector-curvature="0"
       style="fill:#ffffff;fill-opacity:1;stroke-width:0.20310126"
       d="m 130.4432,61.911946 c 0,1.19647 -0.96798,2.167497 -2.16425,2.167497 -1.19626,0 -2.16729,-0.971027 -2.16729,-2.167497 0,-1.196267 0.97103,-2.167294 2.16729,-2.167294 1.19646,0 2.16425,0.97123 2.16425,2.167294 z"
       id="path20" />
    <path
       style="fill:#a24019;fill-opacity:1;stroke:none;stroke-width:0.20310126px;stroke-linecap:butt;stroke-linejoin:miter;stroke-opacity:1"
       d="m 105.73865,83.63537 c 0,0 -0.66659,0.25113 -0.91466,0.855802 l 30.51677,9.891874 1.44312,-0.618428 z"
       id="path5508"
       inkscape:connector-curvature="0"
       sodipodi:nodetypes="ccccc" />
    <g
       id="g5499"
       transform="matrix(0.20198868,0.02122987,-0.02122987,0.20198868,62.947039,-28.478513)">
      <rect
         style="fill:#e55918;fill-opacity:1;stroke-width:0.33178115"
         id="rect5454"
         width="10.545977"
         height="29.943483"
         x="482.14484"
         y="592.31946"
         ry="2.8977563" />
      <rect
         style="fill:#ac4444;fill-opacity:1;stroke-width:0.33178115"
         id="rect5452"
         width="15.508789"
         height="47.330021"
         x="468.70386"
         y="582.85345"
         ry="4.6364102" />
      <rect
         style="fill:#3d1400;fill-opacity:1;stroke-width:0.1941368"
         id="rect4903"
         width="16.785803"
         height="4.0266042"
         x="424.46921"
         y="556.5578"
         ry="2.0133021" />
      <rect
         style="fill:#832a00;fill-opacity:1;stroke-width:0.33178115"
         id="rect5448"
         width="21.298737"
         height="64.137009"
         x="450.5069"
         y="574.54657"
         ry="5.022778" />
      <rect
         style="fill:#d76622;fill-opacity:1;stroke-width:0.33178115"
         id="rect4899"
         width="42.564388"
         height="91.661568"
         x="411.70483"
         y="560.34802"
         ry="11.457696" />
    </g>
  </g>
</svg>
