<?xml version="1.0" encoding="UTF-8" standalone="no"?>
<!-- Created with Inkscape (http://www.inkscape.org/) -->

<svg
   xmlns:dc="http://purl.org/dc/elements/1.1/"
   xmlns:cc="http://creativecommons.org/ns#"
   xmlns:rdf="http://www.w3.org/1999/02/22-rdf-syntax-ns#"
   xmlns:svg="http://www.w3.org/2000/svg"
   xmlns="http://www.w3.org/2000/svg"
   xmlns:sodipodi="http://sodipodi.sourceforge.net/DTD/sodipodi-0.dtd"
   xmlns:inkscape="http://www.inkscape.org/namespaces/inkscape"
   width="250px"
   height="250px"
   viewBox="0 0 250 250"
   version="1.1"
   id="SVGRoot"
   inkscape:version="0.92.1 r15371"
   sodipodi:docname="simplepaul.svg">
  <sodipodi:namedview
     id="base"
     pagecolor="#ffffff"
     bordercolor="#666666"
     borderopacity="1.0"
     inkscape:pageopacity="0.0"
     inkscape:pageshadow="2"
     inkscape:zoom="2.8284271"
     inkscape:cx="124.65473"
     inkscape:cy="116.66452"
     inkscape:document-units="px"
     inkscape:current-layer="g5981"
     showgrid="false"
     inkscape:window-width="1920"
     inkscape:window-height="1016"
     inkscape:window-x="0"
     inkscape:window-y="27"
     inkscape:window-maximized="1"
     inkscape:grid-bbox="true" />
  <defs
     id="defs5262" />
  <metadata
     id="metadata5265">
    <rdf:RDF>
      <cc:Work
         rdf:about="">
        <dc:format>image/svg+xml</dc:format>
        <dc:type
           rdf:resource="http://purl.org/dc/dcmitype/StillImage" />
        <dc:title></dc:title>
      </cc:Work>
    </rdf:RDF>
  </metadata>
  <g
     id="layer1"
     inkscape:groupmode="layer"
     inkscape:label="Livello 1">
    <g
       id="g5981"
       transform="matrix(1.2,0,0,1.2,-38.214182,-43.696799)">
      <path
         id="path6351"
         d="m 155.60535,137.59012 c 2.58177,0 4.67505,2.09327 4.67505,4.67506 v 9.35012 h -9.35014 v -9.35012 c 0,-2.58179 2.09328,-4.67506 4.67509,-4.67506 z m 0,0"
         style="fill:#2f3e4f;stroke-width:0.29219139"
         inkscape:connector-curvature="0" />
      <path
         style="fill:#fef59c;stroke-width:0.34690946"
         inkscape:connector-curvature="0"
         id="path6363"
         d="m 129.8925,137.59012 h 9.88497 v 4.67506 h -9.88497 z m 0,0" />
      <path
         id="path2"
         d="m 204.29367,88.550289 c -1.79363,0 -3.24901,-1.455372 -3.24901,-3.24414 v -3.249324 c 0,-1.793331 1.45538,-3.249009 3.24901,-3.249009 1.79365,0 3.24416,1.455678 3.24416,3.249009 v 3.249324 c 0,1.788768 -1.45051,3.24414 -3.24416,3.24414 z"
         style="fill:#000000;stroke-width:0.30447149;fill-opacity:1"
         inkscape:connector-curvature="0" />
      <path
         id="path4"
         d="m 142.58857,212.02506 c -1.79365,0 -3.24933,-1.45537 -3.24933,-3.24414 v -12.98695 c 0,-1.79819 1.45568,-3.25386 3.24933,-3.25386 1.79363,0 3.24932,1.45536 3.24932,3.25386 v 12.98694 c 0,1.78877 -1.45569,3.24415 -3.24932,3.24415 z"
         style="fill:#000000;stroke-width:0.30447149;fill-opacity:1"
         inkscape:connector-curvature="0" />
      <path
         id="path6"
         d="M 155.58005,212.02506 H 136.0951 c -1.79365,0 -3.24902,-1.45537 -3.24902,-3.24414 0,-1.79822 1.45569,-3.24443 3.24902,-3.24443 h 19.48495 c 1.79366,0 3.24446,1.44622 3.24446,3.24443 0,1.78877 -1.4508,3.24414 -3.24446,3.24414 z"
         style="fill:#000000;stroke-width:0.30447149;fill-opacity:1"
         inkscape:connector-curvature="0" />
      <path
         id="path8"
         d="M 207.53783,88.550289 H 193.59 c -1.79366,0 -3.24445,-1.455372 -3.24445,-3.24414 0,-1.798209 1.45107,-3.249324 3.24445,-3.249324 h 13.94783 c 1.79364,0 3.24931,1.451115 3.24931,3.249324 0,1.788768 -1.45567,3.24414 -3.24931,3.24414 z"
         style="fill:#00000f;fill-opacity:0.94117647;stroke-width:0.30447149"
         inkscape:connector-curvature="0" />
      <path
         id="path10"
         d="m 142.58857,160.15316 c -7.16179,0 -12.98937,5.83216 -12.98937,12.99666 0,3.36807 1.27725,9.43833 3.03984,14.4143 2.72808,7.72565 5.98196,11.47463 9.94953,11.47463 3.96756,0 7.22146,-3.74867 9.95226,-11.47463 1.75983,-4.97597 3.03922,-11.04623 3.03922,-14.4143 0,-7.1645 -5.82728,-12.99666 -12.99148,-12.99666 z"
         style="fill:#b3b3b3;fill-opacity:1;stroke-width:0.30447149"
         inkscape:connector-curvature="0" />
      <g
         id="g16"
         transform="matrix(0.30447149,0,0,0.30447149,54.905038,62.63946)"
         style="fill:#000000">
        <path
           id="path12"
           d="m 478.259,58.9 c 1.891,-2.906 2.234,-6.531 0.953,-9.75 -0.453,-1.141 -11.5,-27.812 -47.154,-27.812 -3.938,0 -8.077,0.344 -12.312,1.016 -25.734,4.094 -41.608,37.14 -59.982,75.419 -13.953,29.046 -28.375,59.091 -46.857,75.45 -11.89,10.53 -47.045,32.42 -147.064,76.95 -60.404,26.882 -116.245,49.35 -116.8,49.6 -4.086,1.625 -6.75,5.625 -6.688,10.031 0.062,4.406 2.828,8.312 6.969,9.843 96.418,35.686 177.891,53.779 242.162,53.779 h 0.016 c 67.263,0 117.292,-19.656 148.681,-58.466 40.187,-49.663 49.154,-129.863 26.655,-238.421 z"
           style="fill:#b3b3b3;fill-opacity:1"
           inkscape:connector-curvature="0" />
        <path
           id="path14"
           d="M 247.777,349.583 98.447,314.336 c -2.625,-0.594 -5.382,-0.219 -7.726,1.125 l -85.332,48.59 c -4.305,2.438 -6.352,7.531 -4.953,12.28 1.352,4.562 5.531,7.656 10.226,7.656 0.203,0 0.406,0 0.609,-0.031 l 234.663,-13.343 c 5.289,-0.312 9.554,-4.438 10.015,-9.719 0.461,-5.281 -3.016,-10.093 -8.172,-11.311 z"
           style="fill:#b3b3b3;fill-opacity:1"
           inkscape:connector-curvature="0" />
      </g>
      <path
         id="path18"
         d="m 198.67558,135.26595 c -6.9027,-18.32004 -19.88961,-22.16856 -29.57058,-22.16856 -12.68278,0 -24.52306,6.38416 -27.52485,8.13 -0.23323,0.0667 -0.46158,0.16654 -0.68019,0.29016 -22.67491,12.89193 -70.58227,32.19452 -71.062735,32.39425 -1.24407,0.49476 -2.055177,1.71265 -2.036295,3.05414 0.01881,1.34152 0.861039,2.53078 2.121858,2.99694 29.358963,10.86535 54.164852,16.37417 73.726562,16.37417 0.005,0 0,0 0,0 15.42238,0 27.94318,-3.41589 37.21525,-10.15202 9.06227,-6.593 15.09904,-16.37417 17.94402,-29.0688 0.13822,-0.61351 0.0905,-1.26052 -0.13297,-1.85028 z"
         style="fill:#000000;fill-opacity:1;stroke-width:0.30447149"
         inkscape:connector-curvature="0" />
      <path
         id="path20"
         d="m 188.05288,82.056825 c 0,1.793646 -1.45112,3.249324 -3.24446,3.249324 -1.79332,0 -3.249,-1.455678 -3.249,-3.249324 0,-1.793331 1.45568,-3.249009 3.249,-3.249009 1.79363,0 3.24446,1.455975 3.24446,3.249009 z"
         style="fill:#ffffff;fill-opacity:1;stroke-width:0.30447149"
         inkscape:connector-curvature="0" />
      <path
         sodipodi:nodetypes="ccccc"
         inkscape:connector-curvature="0"
         id="path5508"
         d="m 151.01799,114.62266 c 0,0 -0.99929,0.37647 -1.37117,1.28295 l 45.74804,14.82902 2.1634,-0.9271 z"
         style="fill:#b3b3b3;fill-opacity:1;stroke:none;stroke-width:0.30447149px;stroke-linecap:butt;stroke-linejoin:miter;stroke-opacity:1" />
      <g
         transform="matrix(0.30280359,0.03182594,-0.03182594,0.30280359,86.868592,-53.448563)"
         id="g5499"
         style="fill:#000000">
        <rect
           ry="2.8977563"
           y="592.31946"
           x="482.14484"
           height="29.943483"
           width="10.545977"
           id="rect5454"
           style="fill:#b3b3b3;fill-opacity:1;stroke-width:0.33178115" />
        <rect
           ry="4.6364102"
           y="582.85345"
           x="468.70386"
           height="47.330021"
           width="15.508789"
           id="rect5452"
           style="fill:#b3b3b3;fill-opacity:1;stroke-width:0.33178115" />
        <rect
           ry="2.0133021"
           y="556.5578"
           x="424.46921"
           height="4.0266042"
           width="16.785803"
           id="rect4903"
           style="fill:#000000;fill-opacity:1;stroke-width:0.1941368" />
        <rect
           ry="5.022778"
           y="574.54657"
           x="450.5069"
           height="64.137009"
           width="21.298737"
           id="rect5448"
           style="fill:#b3b3b3;fill-opacity:1;stroke-width:0.33178115" />
        <rect
           ry="11.457696"
           y="560.34802"
           x="411.70483"
           height="91.661568"
           width="42.564388"
           id="rect4899"
           style="fill:#b3b3b3;fill-opacity:1;stroke-width:0.33178115" />
      </g>
    </g>
  </g>
</svg>
